HIERARCHY
ROOT Bip001_Pelvis
{
  OFFSET 2.11667 93.5892 -0.791448
  CHANNELS 6 Xposition Yposition Zposition Zrotation Xrotation Yrotation
  JOINT Bip001_Spine
  {
    OFFSET 1.44608e-005 10.4157 -0.0118244
    CHANNELS 3 Zrotation Xrotation Yrotation
    JOINT Bip001_L_Thigh
    {
      OFFSET 11.2582 -10.4157 0.0118432
      CHANNELS 3 Zrotation Xrotation Yrotation
      JOINT Bip001_L_Calf
      {
        OFFSET -0.720717 -44.8687 0.366937
        CHANNELS 3 Zrotation Xrotation Yrotation
        JOINT Bip001_L_Foot
        {
          OFFSET -0.664439 -41.3745 -3.62995
          CHANNELS 3 Zrotation Xrotation Yrotation
          JOINT Bip001_L_Toe0
          {
            OFFSET 0.0541048 -10.4146 13.4033
            CHANNELS 3 Zrotation Xrotation Yrotation
            End Site
            {
              OFFSET -1.04503e-005 0 7.70137
            }
          }
        }
      }
    }
    JOINT Bip001_R_Thigh
    {
      OFFSET -11.2582 -10.4156 0.0118122
      CHANNELS 3 Zrotation Xrotation Yrotation
      JOINT Bip001_R_Calf
      {
        OFFSET 0.72059 -44.8687 0.36676
        CHANNELS 3 Zrotation Xrotation Yrotation
        JOINT Bip001_R_Foot
        {
          OFFSET 0.664321 -41.3745 -3.62979
          CHANNELS 3 Zrotation Xrotation Yrotation
          JOINT Bip001_R_Toe0
          {
            OFFSET -0.05417 -10.4146 13.4033
            CHANNELS 3 Zrotation Xrotation Yrotation
            End Site
            {
              OFFSET -1.04873e-005 0 7.70137
            }
          }
        }
      }
    }
    JOINT Bip001_Spine1
    {
      OFFSET 1.90638e-005 14.8539 1.10727
      CHANNELS 3 Zrotation Xrotation Yrotation
      JOINT Bip001_Spine2
      {
        OFFSET 2.28934e-005 14.7848 -1.7233
        CHANNELS 3 Zrotation Xrotation Yrotation
        JOINT Bip001_Neck
        {
          OFFSET 2.24514e-005 15.6905 -0.498826
          CHANNELS 3 Zrotation Xrotation Yrotation
          JOINT Bip001_L_Clavicle
          {
            OFFSET 6.17691 -0.000591152 0.00852867
            CHANNELS 3 Zrotation Xrotation Yrotation
            JOINT Bip001_L_UpperArm
            {
              OFFSET 11.773 -0.0611878 0.00197697
              CHANNELS 3 Zrotation Xrotation Yrotation
              JOINT Bip001_L_Forearm
              {
                OFFSET 26.4515 0.0817567 -2.1958
                CHANNELS 3 Zrotation Xrotation Yrotation
                JOINT Bip001_L_Hand
                {
                  OFFSET 32.8677 0.156744 1.67112
                  CHANNELS 3 Zrotation Xrotation Yrotation
                  JOINT Bip001_L_Finger0
                  {
                    OFFSET 6.16267 -2.25228 6.01669
                    CHANNELS 3 Zrotation Xrotation Yrotation
                    End Site
                    {
                      OFFSET 4.30498 -1.46664 0.618143
                    }
                  }
                  JOINT Bip001_L_Finger1
                  {
                    OFFSET 11.2957 -0.71838 -0.201961
                    CHANNELS 3 Zrotation Xrotation Yrotation
                    End Site
                    {
                      OFFSET 6.31952 -0.405166 -0.0802296
                    }
                  }
                }
              }
            }
          }
          JOINT Bip001_R_Clavicle
          {
            OFFSET -6.17691 -0.000574027 0.00851165
            CHANNELS 3 Zrotation Xrotation Yrotation
            JOINT Bip001_R_UpperArm
            {
              OFFSET -11.773 -0.0611516 0.00194365
              CHANNELS 3 Zrotation Xrotation Yrotation
              JOINT Bip001_R_Forearm
              {
                OFFSET -26.4514 0.0822335 -2.19736
                CHANNELS 3 Zrotation Xrotation Yrotation
                JOINT Bip001_R_Hand
                {
                  OFFSET -32.8677 0.156816 1.67144
                  CHANNELS 3 Zrotation Xrotation Yrotation
                  JOINT Bip001_R_Finger0
                  {
                    OFFSET -6.16269 -2.25224 6.01673
                    CHANNELS 3 Zrotation Xrotation Yrotation
                    End Site
                    {
                      OFFSET -4.30499 -1.46661 0.618137
                    }
                  }
                  JOINT Bip001_R_Finger1
                  {
                    OFFSET -11.2957 -0.718342 -0.201995
                    CHANNELS 3 Zrotation Xrotation Yrotation
                    End Site
                    {
                      OFFSET -6.31951 -0.405145 -0.080248
                    }
                  }
                }
              }
            }
          }
          JOINT Bip001_Head
          {
            OFFSET 1.11782e-005 11.4912 2.09908
            CHANNELS 3 Zrotation Xrotation Yrotation
            End Site
            {
              OFFSET 2.95144e-005 21.2823 -2.83069e-005
            }
          }
        }
      }
    }
  }
}
MOTION
Frames:	6
Frame Time:	0.0333333
2.11667 93.5892 -0.791448 1.26273 -6.05854 1.94018 -0.129896 1.89207 1.13942 -4.42747 6.00159 3.45432 -0.0130951 9.18033 -0.158245 -5.69776 7.75433 -19.4616 -2.03136e-006 -4.944e-007 2.25684e-006 -2.08709 -11.4575 -0.58818 -0.0726092 29.547 0.479915 2.0533 -8.96764 1.14436 -1.75778e-007 -5.55602e-007 -9.28657e-009 -0.297703 3.78122 2.28498 -0.297702 3.7812 2.28497 2.37062 -7.91519 -1.07034 -23.7679 5.52782 12.4097 -38.1688 37.6505 -32.9181 -0.315902 0.0227274 -3.77359 -5.60356 40.6956 -7.89021 3.18055e-015 0 -1.59028e-015 3.18055e-015 3.18056e-015 -1.59028e-015 9.45722 5.42212 -17.3529 59.9807 41.3772 21.4115 0.529574 0.0531098 5.3035 -7.62455 7.8646 9.42333 3.18055e-015 3.18055e-015 -0 1.76556e-031 -3.18056e-015 3.18055e-015 -4.76375 3.17362 0.964314 
2.11363 93.462 -0.79251 1.29185 -6.57851 0.0737468 -0.266532 2.11667 1.22562 -4.75833 6.70615 4.17191 -0.0147643 8.58272 -0.157987 -5.86038 8.43522 -18.5808 -2.03136e-006 -4.944e-007 2.25684e-006 -2.24654 -11.9593 -0.577285 -0.085376 30.65 0.496014 2.0378 -9.11842 2.76755 -1.75778e-007 -5.55602e-007 -9.28657e-009 -0.578971 4.22713 2.46363 -0.57894 4.22711 2.46363 2.55675 -8.362 -2.0267 -23.7202 5.60618 13.3561 -37.4634 38.0887 -33.6568 -0.281597 0.0227364 -3.41062 -5.56208 40.4353 -7.88757 -3.18055e-015 4.77083e-015 7.95139e-016 0 6.36111e-015 -0 9.53201 6.01227 -16.3195 59.9052 40.8599 21.8489 0.577851 0.0530667 5.78307 -7.8808 7.89779 9.87617 0 0 -6.36111e-015 -1.76556e-031 -3.18056e-015 -3.18055e-015 -4.84255 2.81965 0.967402 
2.06656 93.3091 -0.811938 1.27736 -7.12976 -2.33861 -0.414484 2.32478 1.23625 -5.17098 7.47591 4.87923 -0.0168656 7.92212 -0.155821 -6.10497 9.3045 -17.9306 -2.03136e-006 -4.944e-007 2.25684e-006 -2.2699 -12.5996 -0.169055 -0.097785 31.9886 0.52349 2.22405 -9.71646 5.04065 -1.75778e-007 -5.55602e-007 -9.28657e-009 -0.880237 4.63997 2.4924 -0.880231 4.63997 2.49239 1.98718 -8.81532 -4.00191 -23.1206 5.31297 15.3417 -37.5466 37.9126 -33.5264 -0.260785 0.0224608 -3.16548 -5.50682 40.4503 -7.80618 3.18055e-015 -3.18055e-015 -7.95139e-016 -0 -1.59028e-015 -0 9.42193 6.90879 -14.0959 60.1897 41.4092 22.6092 0.613842 0.0554928 6.14264 -8.12761 7.2589 10.0712 -0 0 3.18055e-015 3.53113e-031 -3.18056e-015 6.36111e-015 -5.17868 3.12115 0.985279 
1.98276 93.1595 -0.761475 1.12963 -7.79903 -5.04562 -0.482267 2.41085 1.10104 -5.67874 8.25598 5.09117 -0.0178172 7.66777 -0.153825 -6.48951 9.93646 -16.605 -2.03136e-006 -4.944e-007 2.25684e-006 -2.21047 -12.8532 0.426653 -0.108395 33.0524 0.547756 2.3072 -10.2581 7.44448 -1.75778e-007 -5.55602e-007 -9.28657e-009 -1.01226 4.81187 2.22528 -1.01226 4.81186 2.22527 0.49974 -7.40085 -7.07658 -21.8588 2.98068 17.6441 -39.0525 36.9768 -31.4479 -0.258366 0.022538 -3.09889 -5.15594 40.744 -7.91455 -2.20695e-032 -3.18055e-015 -3.97569e-016 -3.18055e-015 -3.18056e-015 3.97569e-016 9.42901 6.28281 -10.3048 60.7992 42.8497 23.3165 0.642812 0.0599211 6.43451 -8.36805 6.93265 9.84009 -3.18055e-015 -6.36111e-015 -0 -3.18055e-015 -6.36111e-015 -0 -5.25538 3.57312 0.946483 
1.89698 93.0368 -0.686067 0.837319 -8.48892 -7.92467 -0.480045 2.4631 0.841938 -6.36122 8.78217 3.99697 -0.0164727 7.96587 -0.157806 -7.06707 10.0317 -14.1811 -2.03136e-006 -4.944e-007 2.25684e-006 -2.25989 -12.7659 0.898336 -0.114189 33.5314 0.559703 1.94892 -10.168 9.36111 -1.75778e-007 -5.55602e-007 -9.28657e-009 -0.997708 4.91881 1.70682 -0.997711 4.91882 1.70686 -1.74509 -5.63438 -10.7096 -19.9163 0.353932 20.3476 -41.3111 35.0965 -28.384 -0.270376 0.0229772 -3.2107 -4.60996 41.6795 -8.15714 9.54166e-015 0 1.19271e-015 6.36111e-015 -1.59028e-015 1.59028e-015 10.2636 5.39939 -6.87546 60.557 45.0853 24.9772 0.655698 0.0622297 6.56465 -8.31596 8.2011 9.72981 -7.95139e-015 3.18055e-015 6.36111e-015 -6.36111e-015 6.36111e-015 3.18055e-015 -5.26974 3.99964 0.750098 
1.78714 92.8904 -0.652927 -0.139657 -9.27694 -10.9237 -0.364854 2.56096 0.49753 -6.47552 9.21703 4.14468 -0.011758 8.76523 -0.174451 -7.40028 9.96455 -12.6 -2.03136e-006 -4.944e-007 2.25684e-006 -1.98743 -12.2339 0.966877 -0.11228 33.4227 0.562122 1.64915 -9.87165 11.4051 -1.75778e-007 -5.55602e-007 -9.28657e-009 -0.753167 5.11867 1.01296 -0.753144 5.11869 1.01291 -4.74218 -3.96925 -14.1672 -17.0257 -1.73137 23.1442 -42.8328 33.5358 -25.8399 -0.288139 0.0236189 -3.35194 -4.4525 42.537 -8.42571 -3.18055e-015 0 5.96354e-016 -3.18055e-015 2.38542e-015 7.95139e-016 13.0674 4.89257 -4.59176 58.0093 47.4792 28.0594 0.66191 0.0634793 6.63541 -7.89684 10.0462 9.85357 1.76556e-031 -3.18055e-015 3.18055e-015 -4.77083e-015 -3.18056e-015 3.18055e-015 -5.65138 4.29017 0.855637 
